<svg xmlns="http://www.w3.org/2000/svg" viewBox="0 0 400 300" role="img" aria-labelledby="radar-title radar-desc">
<title id="radar-title">Range as an annular band</title><desc id="radar-desc">Concentric range arcs and a highlighted distance band visualize range-only evidence without claiming a bearing or height.</desc>
<defs><radialGradient id="ambient"><stop stop-color="#d5aaff" stop-opacity=".16"/><stop offset="1" stop-color="#091525" stop-opacity="0"/></radialGradient><linearGradient id="signal" x1="0" y1="1" x2="1" y2="0"><stop stop-color="#d5aaff" stop-opacity=".12"/><stop offset=".55" stop-color="#d5aaff"/><stop offset="1" stop-color="#d9fff3" stop-opacity=".45"/></linearGradient><clipPath id="frame"><rect width="400" height="300" rx="8"/></clipPath><pattern id="grid" width="25" height="25" patternUnits="userSpaceOnUse"><path d="M25 0H0V25" fill="none" stroke="#203b50" stroke-width=".5"/></pattern></defs>
<g clip-path="url(#frame)"><rect width="400" height="300" fill="#091525"/><rect width="400" height="300" fill="url(#grid)"/><circle cx="210.00" cy="142.00" r="200" fill="url(#ambient)" opacity="1" stroke="none" stroke-width="1"/><path d="M58 150L330 -30L330 330Z" stroke="none" stroke-width="0" opacity="1" fill="#b290e308" /><path d="M75.53 114.05A40 40 0 0 1 75.53 185.95" stroke="#ba91f0" stroke-width="1.1" opacity="0.13" fill="none" /><path d="M85.18 94.27A62 62 0 0 1 85.18 205.73" stroke="#ba91f0" stroke-width="1.1" opacity="0.13" fill="none" /><path d="M94.82 74.50A84 84 0 0 1 94.82 225.50" stroke="#ba91f0" stroke-width="1.1" opacity="0.13" fill="none" /><path d="M104.47 54.73A106 106 0 0 1 104.47 245.27" stroke="#ba91f0" stroke-width="1.1" opacity="0.13" fill="none" /><path d="M114.11 34.95A128 128 0 0 1 114.11 265.05" stroke="#ba91f0" stroke-width="1.1" opacity="0.13" fill="none" /><path d="M123.76 15.18A150 150 0 0 1 123.76 284.82" stroke="#ba91f0" stroke-width="1.1" opacity="0.13" fill="none" /><path d="M133.40 -4.59A172 172 0 0 1 133.40 304.59" stroke="#ba91f0" stroke-width="1.1" opacity="0.3" fill="none" /><path d="M143.04 -24.37A194 194 0 0 1 143.04 324.37" stroke="#ba91f0" stroke-width="1.1" opacity="0.13" fill="none" /><path d="M152.69 -44.14A216 216 0 0 1 152.69 344.14" stroke="#ba91f0" stroke-width="1.1" opacity="0.13" fill="none" /><path d="M162.33 -63.91A238 238 0 0 1 162.33 363.91" stroke="#ba91f0" stroke-width="1.1" opacity="0.13" fill="none" /><path d="M171.98 -83.69A260 260 0 0 1 171.98 383.69" stroke="#ba91f0" stroke-width="1.1" opacity="0.13" fill="none" /><path d="M181.62 -103.46A282 282 0 0 1 181.62 403.46" stroke="#ba91f0" stroke-width="1.1" opacity="0.13" fill="none" /><path d="M58 150L193.90 -128.63" stroke="#a482d8" stroke-width="0.7" opacity="0.15" fill="none" /><path d="M58 150L320.89 -14.27" stroke="#a482d8" stroke-width="0.7" opacity="0.15" fill="none" /><path d="M58 150L368.00 150.00" stroke="#a482d8" stroke-width="0.7" opacity="0.15" fill="none" /><path d="M58 150L320.89 314.27" stroke="#a482d8" stroke-width="0.7" opacity="0.15" fill="none" /><path d="M58 150L193.90 428.63" stroke="#a482d8" stroke-width="0.7" opacity="0.15" fill="none" /><path d="M150.00 -9.35A184 184 0 0 1 150.00 309.35" stroke="#d5aaff" stroke-width="16" opacity="0.12" fill="none" /><path d="M150.00 -9.35A184 184 0 0 1 150.00 309.35" stroke="url(#signal)" stroke-width="2.5" opacity="0.95" fill="none" /><circle cx="58.00" cy="150.00" r="14" fill="#091525" opacity="1" stroke="#d5aaff" stroke-width="1"/><circle cx="58.00" cy="150.00" r="4" fill="#e5c6ff" opacity="1" stroke="none" stroke-width="1"/><path d="M72 150H242" stroke="#dfbaff" stroke-width="1" opacity="0.8" fill="none" stroke-dasharray="3 6"/><text x="22" y="278" fill="#d1b6ed" font-family="monospace" font-size="16">A DISTANCE BECOMES A BAND</text></g></svg>
